<svg width="235" height="47" viewBox="0 0 235 47" fill="none" xmlns="http://www.w3.org/2000/svg">
<g clip-path="url(#clip0_3508_6794)">
<path d="M23.2703 46.3202C36.0113 46.3202 46.3399 36.0027 46.3399 23.2753C46.3399 10.548 36.0113 0.230469 23.2703 0.230469C10.5293 0.230469 0.200684 10.548 0.200684 23.2753C0.200684 36.0027 10.5293 46.3202 23.2703 46.3202Z" fill="white"/>
<path d="M94.6025 8.71484H100.026V37.4923H94.6025V8.71484Z" fill="white"/>
<path d="M121.144 8.14062C117.586 8.14062 114.745 9.14382 112.679 11.1216C110.585 13.0993 109.552 15.9369 109.552 19.6631V26.5708C109.552 29.0358 110.011 31.1282 110.986 32.848C111.933 34.5677 113.196 35.8575 114.803 36.7461C116.41 37.6346 118.189 38.0932 120.168 38.0932C121.66 38.0932 122.808 37.9213 123.669 37.5486C124.53 37.2047 125.161 36.7461 125.591 36.2302C126.022 35.7142 126.337 35.227 126.51 34.7397H127.256V37.4913H132.277V22.7873H120.082V27.402H126.911V27.8033C126.911 29.4084 126.452 30.6982 125.563 31.7588C124.645 32.7906 123.21 33.3066 121.23 33.3066C119.25 33.3066 117.729 32.7046 116.61 31.4721C115.491 30.2396 114.975 28.6345 114.975 26.6568V19.5771C114.975 17.542 115.52 15.9369 116.61 14.7617C117.701 13.5866 119.221 12.9846 121.144 12.9846C122.435 12.9846 123.497 13.2139 124.358 13.7012C125.218 14.1885 125.85 14.8191 126.28 15.6503C126.71 16.4815 126.911 17.3987 126.911 18.4019V18.7459H132.248V18.5739C132.248 15.3636 131.273 12.8127 129.35 10.9496C127.428 9.0865 124.673 8.14062 121.144 8.14062Z" fill="white"/>
<path d="M143.124 8.71484H148.547V37.4923H143.124V8.71484Z" fill="white"/>
<path d="M156.695 13.6448H165.074V37.4923H170.497V13.6448H178.904V8.71484H156.695V13.6448Z" fill="white"/>
<path d="M190.41 8.71484L182.835 37.4923H188.43L190.008 31.1578H200.281L201.859 37.4923H207.454L199.879 8.71484H190.41ZM191.271 26.1418L194.771 12.1257H195.517L199.018 26.1418H191.271Z" fill="white"/>
<path d="M233.651 24.8784C232.791 23.7605 231.614 22.8433 230.093 22.1554C228.573 21.4675 226.794 20.9229 224.728 20.4643L223.781 20.2637C222.633 20.0057 221.686 19.7191 220.94 19.4038C220.194 19.0598 219.649 18.6585 219.276 18.1713C218.903 17.684 218.731 17.0821 218.731 16.3655C218.731 15.305 219.133 14.4451 219.907 13.8432C220.682 13.2413 221.916 12.926 223.551 12.926C224.642 12.926 225.589 13.0693 226.392 13.4133C227.195 13.7285 227.798 14.2158 228.228 14.9037C228.659 15.5916 228.86 16.4515 228.86 17.5407V18.7732H234.197V17.5407C234.197 15.4483 233.738 13.7285 232.819 12.3527C231.901 10.9769 230.639 9.9164 229.032 9.22849C227.425 8.54059 225.589 8.16797 223.523 8.16797C221.457 8.16797 219.678 8.51192 218.157 9.17117C216.636 9.83041 215.46 10.8049 214.628 12.0374C213.796 13.2699 213.365 14.7891 213.365 16.5375C213.365 18.2859 213.738 19.7191 214.513 20.8083C215.259 21.8974 216.349 22.786 217.755 23.4452C219.161 24.1045 220.854 24.6777 222.834 25.1077L223.781 25.3083C225.015 25.5949 226.076 25.8816 226.937 26.1969C227.798 26.5122 228.458 26.9134 228.917 27.4007C229.376 27.888 229.606 28.5472 229.606 29.3211C229.606 30.4676 229.147 31.4135 228.228 32.1587C227.31 32.904 225.904 33.2766 224.039 33.2766C222.174 33.2766 220.739 32.8466 219.678 31.9867C218.616 31.1269 218.071 29.837 218.071 28.0886V26.9421H212.734V28.0886C212.734 30.181 213.222 31.9581 214.169 33.4485C215.115 34.939 216.464 36.0569 218.157 36.8594C219.85 37.662 221.83 38.0633 224.039 38.0633C226.249 38.0633 228.2 37.6906 229.835 36.9454C231.471 36.2002 232.733 35.1397 233.623 33.8212C234.512 32.5027 234.971 30.9549 234.971 29.2065C234.971 27.458 234.484 25.9962 233.651 24.8784Z" fill="white"/>
<path d="M82.0635 11.6384C80.055 9.68938 77.0995 8.71484 73.2259 8.71484H61.3755V13.4729H65.163V32.7056H61.3755V37.4636H73.2259C77.0995 37.4636 80.0263 36.4891 82.0635 34.54C84.0721 32.5909 85.0763 29.6673 85.0763 25.7979V20.3806C85.105 16.5398 84.0721 13.6162 82.0635 11.6384ZM79.6533 25.9698C79.6533 28.0622 79.1368 29.6673 78.1325 30.8139C77.1282 31.9604 75.5214 32.5336 73.312 32.5336H70.5861V13.6162H73.312C75.4927 13.6162 77.0995 14.1894 78.1325 15.3359C79.1368 16.4825 79.6533 18.0876 79.6533 20.2086V25.9698Z" fill="white"/>
<path d="M27.3737 28.4882L32.7968 37.4883H31.0751L25.9103 28.8895V28.6888C23.8444 28.9754 22.1228 28.5742 21.2333 28.3162L18.9378 32.329L20.9463 37.517H19.3682L17.3022 32.2143L20.602 26.4531L21.2333 26.7398C21.262 26.7398 23.6435 27.8003 26.5129 27.0837L27.4311 26.8544V28.4882H27.3737Z" fill="#1A21F5"/>
<path d="M14.0601 24.1916C13.8592 24.8222 13.8018 25.4527 13.9166 25.94C14.0888 26.7426 14.347 27.5165 14.3757 27.5165C15.0643 29.4369 14.2035 30.7267 13.6297 31.3286L15.6669 37.4911H14.1175L11.9081 30.8414L12.3385 30.5261C12.5393 30.3827 13.5149 29.5802 12.9697 28.0324C12.9697 28.0037 12.6541 27.1439 12.4532 26.2553C12.2524 25.3094 12.4532 24.3922 12.6541 23.7616L12.7402 23.475C11.0759 23.733 9.64127 24.8222 9.01001 26.4273C8.57961 27.5451 8.6083 28.7776 9.0674 29.8668L9.09609 29.9528C9.52649 30.956 9.44041 31.6439 9.26825 32.0452C8.92393 32.8764 8.12051 33.3923 7.2884 33.3923C7.03016 33.3923 6.77191 33.335 6.51367 33.249L7.05885 31.8732C7.37448 31.9879 7.74749 31.8159 7.89096 31.5006C7.91965 31.4433 8.00573 31.1566 7.7188 30.5547L7.66141 30.4401C7.05885 29.0069 7.03016 27.4018 7.60403 25.94C8.55091 23.475 10.9899 21.8986 13.601 21.9845C15.007 20.6374 17.2737 20.6661 17.532 20.6947H19.7127C20.1718 19.8062 21.0326 16.3953 21.6065 13.443C21.9795 11.408 23.5863 10.0895 25.8244 9.97484L27.3452 8.48438L29.2963 10.2041L28.3494 11.322L27.3452 10.5194L26.3983 11.4366L25.9966 11.408C24.3324 11.4366 23.242 12.2679 22.9838 13.6723L20.9465 22.0992L17.3885 22.0705C17.532 22.1279 14.6913 22.0419 14.0601 24.1916Z" fill="#1A21F5"/>
<path d="M32.2231 12.4387C33.0552 12.4673 33.7726 13.0406 33.9734 13.8718C34.0882 14.3591 34.0308 14.875 33.7439 15.305C33.4856 15.7349 33.0552 16.0502 32.5674 16.1648C32.0796 16.2795 31.5632 16.2222 31.1328 15.9642L29.2103 16.1362L30.3293 20.9229C31.0754 21.7254 31.5058 22.7859 31.5058 23.9038H36.4698L34.7195 29.837C34.2317 31.3561 33.0265 32.0727 32.424 32.3307L31.6492 31.0695C31.7353 31.0408 32.8831 30.6682 33.2848 29.4357L34.4612 25.4229H29.8416L29.9563 24.5917C29.985 24.3051 30.0137 24.1618 30.0137 23.9898C30.0137 23.1872 29.6694 22.4133 29.1242 21.8687L28.9521 21.7254L27.3452 14.875L31.5632 14.4737L31.7927 14.6744C31.9075 14.7604 32.0223 14.789 32.1657 14.7604C32.2805 14.7317 32.3666 14.6744 32.424 14.5597C32.4814 14.4737 32.51 14.3591 32.4814 14.2444C32.424 14.0725 32.2805 13.9291 32.0796 13.9291H32.051C32.0223 13.9291 32.0223 13.9291 31.9936 13.9291L31.7066 13.9578L29.2964 12.0661L34.289 6.04688L34.6334 6.3335L31.4197 11.8081L32.2231 12.4387Z" fill="#1A21F5"/>
</g>
<defs>
<clipPath id="clip0_3508_6794">
<rect width="235" height="46.4337" fill="white"/>
</clipPath>
</defs>
</svg>
